<?xml version="1.0" encoding="utf-8"?>
<!-- Generator: Adobe Illustrator 17.1.0, SVG Export Plug-In . SVG Version: 6.00 Build 0)  -->
<!DOCTYPE svg PUBLIC "-//W3C//DTD SVG 1.1//EN" "http://www.w3.org/Graphics/SVG/1.1/DTD/svg11.dtd">
<svg version="1.1" id="Layer_1" xmlns="http://www.w3.org/2000/svg" xmlns:xlink="http://www.w3.org/1999/xlink" x="0px" y="0px"
	 viewBox="0 0 100 100" enable-background="new 0 0 100 100" xml:space="preserve">
<path fill="#E5302C" d="M24.6,9.2l17.1,17.1c0,0,0,5-5,10.4c-5.4,5-10.4,5-10.4,5L9.2,24.6c-2.5,9.6,0.8,21.2,7.9,28.3
	c10.8,10.8,24.2,1.2,27.1,4.2c15,15,27.1,30.4,27.9,31.3c4.6,4.6,12.1,4.6,16.2,0.4c4.6-4.6,4.2-11.7-0.4-16.2
	c-0.4-0.4-16.7-13.3-31.7-28.3c-2.9-2.9,7.5-15.8-3.7-27.1C45.8,10,34.2,6.7,24.6,9.2z M84.2,79.2c0,2.9-2.1,5-5,5s-5-2.1-5-5
	s2.1-5,5-5S84.2,76.2,84.2,79.2z"/>
</svg>
