<?xml version="1.0" encoding="utf-8"?>
<!-- Generator: Adobe Illustrator 17.1.0, SVG Export Plug-In . SVG Version: 6.00 Build 0)  -->
<!DOCTYPE svg PUBLIC "-//W3C//DTD SVG 1.1//EN" "http://www.w3.org/Graphics/SVG/1.1/DTD/svg11.dtd">
<svg version="1.1" id="Layer_1" xmlns="http://www.w3.org/2000/svg" xmlns:xlink="http://www.w3.org/1999/xlink" x="0px" y="0px"
	 viewBox="0 0 100 100" enable-background="new 0 0 100 100" xml:space="preserve">
<g>
	<path fill="#E5302C" d="M79.3,2.5H20.7c-4.5,0-8.2,3.7-8.2,8.2v78.6c0,4.5,3.7,8.2,8.2,8.2h58.7c4.5,0,8.2-3.7,8.2-8.2V10.7
		C87.6,6.2,83.9,2.5,79.3,2.5z M86.4,89.3c0,3.9-3.2,7-7,7H20.7c-3.9,0-7-3.2-7-7V10.7c0-3.9,3.2-7,7-7h58.7c3.9,0,7,3.2,7,7V89.3z"
		/>
	<path fill="#E5302C" d="M43.2,45c2.2,0.4,4.7,0.4,6.8,0.4c4.9,0,10.6-0.3,11.6-3c0.3-0.8,0.2-2.1,0-2.6c-0.7-2.1-3.7-3.5-5.4-4.2
		c-0.1-0.1-0.3-0.1-0.4-0.2l-0.1-0.1c-0.9-0.3-2.3-0.9-2.5-1.6c-0.3-1.1,0.4-2,1.1-2.8c0.3-0.3,0.5-0.7,0.7-1
		c0.8-1.3,1.3-3.1,1.4-4.4c0.2-2.4-0.4-4.4-1.7-5.8c-1.1-1.2-2.7-1.9-4.6-1.9c-0.3,0-0.7,0-1,0.1c-3.1,0.4-5.2,2.6-5.4,6
		c-0.2,2.6,0.6,5,2.2,7.3c0.1,0.1,0.2,0.3,0.3,0.4c0.4,0.5,0.8,1,0.7,1.7c-0.1,0.9-1,1.3-1.8,1.6L44.9,35c-0.9,0.4-1.9,0.9-2.4,1.2
		l-0.1,0.1c-1.7,1-3.6,2.1-4,3.7c-0.3,1.1-0.2,2,0.3,2.8C39.5,44.1,41.7,44.7,43.2,45z"/>
	<path fill="#E5302C" d="M72.8,60.1H27.2c-1.3,0-2.3,1-2.3,2.3c0,1.3,1,2.3,2.3,2.3h45.6c1.3,0,2.3-1,2.3-2.3
		C75.1,61.2,74.1,60.1,72.8,60.1z M72.8,63.9H27.2c-0.8,0-1.5-0.7-1.5-1.5c0-0.8,0.7-1.5,1.5-1.5h45.6c0.8,0,1.5,0.7,1.5,1.5
		C74.3,63.3,73.6,63.9,72.8,63.9z"/>
	<path fill="#E5302C" d="M72.8,69H27.2c-1.3,0-2.3,1-2.3,2.3s1,2.3,2.3,2.3h45.6c1.3,0,2.3-1,2.3-2.3S74.1,69,72.8,69z M72.8,72.8
		H27.2c-0.8,0-1.5-0.7-1.5-1.5c0-0.8,0.7-1.5,1.5-1.5h45.6c0.8,0,1.5,0.7,1.5,1.5C74.3,72.1,73.6,72.8,72.8,72.8z"/>
	<path fill="#E5302C" d="M72.8,77.9H27.2c-1.3,0-2.3,1-2.3,2.3c0,1.3,1,2.3,2.3,2.3h45.6c1.3,0,2.3-1,2.3-2.3
		C75.1,78.9,74.1,77.9,72.8,77.9z M72.8,81.7H27.2c-0.8,0-1.5-0.7-1.5-1.5c0-0.8,0.7-1.5,1.5-1.5h45.6c0.8,0,1.5,0.7,1.5,1.5
		C74.3,81,73.6,81.7,72.8,81.7z"/>
</g>
</svg>
