<?xml version="1.0" encoding="utf-8"?>
<!-- Generator: Adobe Illustrator 17.1.0, SVG Export Plug-In . SVG Version: 6.00 Build 0)  -->
<!DOCTYPE svg PUBLIC "-//W3C//DTD SVG 1.1//EN" "http://www.w3.org/Graphics/SVG/1.1/DTD/svg11.dtd">
<svg version="1.1" id="Layer_1" xmlns="http://www.w3.org/2000/svg" xmlns:xlink="http://www.w3.org/1999/xlink" x="0px" y="0px"
	 viewBox="0 0 100 100" enable-background="new 0 0 100 100" xml:space="preserve">
<circle fill="#E5302C" cx="67.3" cy="21.2" r="6.2"/>
<path fill="#E5302C" d="M94.4,52.9c0,1.3-1.1,2.4-2.4,2.4H7.9c-1.3,0-2.4-1.1-2.4-2.4l0,0c0-1.3,1.1-2.4,2.4-2.4H92
	C93.3,50.4,94.4,51.6,94.4,52.9L94.4,52.9z"/>
<path fill="#E5302C" d="M90.4,87.8c0,1.4-1.2,2.7-2.7,2.7H11.4c-1.4,0-2.7-1.2-2.7-2.7V58.7c0-1.4,1.2-2.7,2.7-2.7h76.2
	c1.4,0,2.7,1.2,2.7,2.7v29.1H90.4z"/>
<path fill="#E5302C" d="M44.4,28.4c0-1-0.8-1.8-1.8-1.8H18.4c-1,0-1.8,0.8-1.8,1.8v15.3c0,1,0.8,1.8,1.8,1.8h24.2
	c1,0,1.8-0.8,1.8-1.8V28.4z"/>
<path fill="#E5302C" d="M37.6,46.7H23.4c-1,0-1.9,0.1-1.9,1.1c0,1,0.9,1.1,1.9,1.1h14.1c1,0,1.9-0.1,1.9-1.1
	C39.4,46.8,38.6,46.7,37.6,46.7z"/>
<path fill="#E5302C" d="M73.4,29.3H61c-0.1,0-0.3,0-0.4,0c-0.1,0-0.4,0-0.1,0c0,0-0.1,0-0.2,0c-0.2,0-0.4,0.1-0.8,0.1h-0.1
	c-0.1,0-0.1,0-0.2,0c-0.1,0-0.1,0-0.2,0.1l0,0c-2.3,0.7-4.4,2.7-5.3,5.4L49,49.7h5.9L58.8,37l0,0v12.7h15.6V36.3h0.9v13.3h5.7V37.9
	C81,33.1,77.7,29.3,73.4,29.3z"/>
</svg>
