<?xml version="1.0" encoding="utf-8"?>
<!-- Generator: Adobe Illustrator 17.1.0, SVG Export Plug-In . SVG Version: 6.00 Build 0)  -->
<!DOCTYPE svg PUBLIC "-//W3C//DTD SVG 1.1//EN" "http://www.w3.org/Graphics/SVG/1.1/DTD/svg11.dtd">
<svg version="1.1" id="Layer_1" xmlns="http://www.w3.org/2000/svg" xmlns:xlink="http://www.w3.org/1999/xlink" x="0px" y="0px"
	 viewBox="0 0 100 100" enable-background="new 0 0 100 100" xml:space="preserve">
<path fill="#E5302C" d="M65,34.4H50.4L69.7,3c1.8-2.9,5.6-3.9,8.6-2.1c2.9,1.8,3.9,5.7,2,8.6L65,34.4z M100,37.5v18.8h-4.2
	L83.2,94.1c-1.1,3.3-4.8,5.9-8.2,5.9H25c-3.4,0-7.1-2.7-8.2-5.9L4.2,56.2H0V37.5H100z M31.2,68.8c0-3.5-2.8-6.2-6.2-6.2
	s-6.2,2.8-6.2,6.2v12.5c0,3.5,2.8,6.2,6.2,6.2s6.2-2.8,6.2-6.2V68.8z M56.2,68.8c0-3.5-2.8-6.2-6.2-6.2s-6.2,2.8-6.2,6.2v12.5
	c0,3.5,2.8,6.2,6.2,6.2s6.2-2.8,6.2-6.2V68.8z M56.2,46.9c0-3.5-2.8-6.2-6.2-6.2s-6.2,2.8-6.2,6.2c0,3.5,2.8,6.2,6.2,6.2
	C53.5,53.1,56.2,50.3,56.2,46.9z M81.2,68.8c0-3.5-2.8-6.2-6.2-6.2s-6.2,2.8-6.2,6.2v12.5c0,3.5,2.8,6.2,6.2,6.2s6.2-2.8,6.2-6.2
	V68.8z"/>
</svg>
