<?xml version="1.0" encoding="utf-8"?>
<!-- Generator: Adobe Illustrator 17.1.0, SVG Export Plug-In . SVG Version: 6.00 Build 0)  -->
<!DOCTYPE svg PUBLIC "-//W3C//DTD SVG 1.1//EN" "http://www.w3.org/Graphics/SVG/1.1/DTD/svg11.dtd">
<svg version="1.1" id="Calque_1" xmlns="http://www.w3.org/2000/svg" xmlns:xlink="http://www.w3.org/1999/xlink" x="0px" y="0px"
	 viewBox="0 0 100 100" enable-background="new 0 0 100 100" xml:space="preserve">
<g id="Captions" display="none">
</g>
<g id="Your_Icon">
	<path fill="#E5302C" d="M28.4,83H11.1C8.3,83,6,85.2,6,88s2.3,5,5.1,5h27.8l8.8-10H34.3H28.4z"/>
	<path fill="#E5302C" d="M71,74.5c0,1.3-0.3,2.5-0.8,3.6l0.8,0.5v16.4c0,2.8,2.7,5.1,5.5,5.1s5.5-2.3,5.5-5.1V72.5l-11-5.7V74.5z"/>
	<path fill="#E5302C" d="M80.5,42H64V30.6c0-5.1-4-9.2-9.1-9.2c-0.2,0-0.4,0-0.6,0c-1-0.1-2.1,0.2-3,0.7c-1,0.4-1.7,1.1-2.5,1.8
		L33,35.1v19.5c0,2.8,2.2,5.1,5,5.1s5-2.3,5-5.1V40.4l3-2.1V47h17.1c3.4,0,6.3,2,7.6,5h9.8c2.8,0,5.1-2.2,5.1-5S83.3,42,80.5,42z"/>
	<path fill="#E5302C" d="M63.1,50H46v4.6c0,0.5-0.3,1.4-0.4,1.4H62v17H29V56h0.6c-0.1,0-0.6-0.9-0.6-1.4V50h-0.6
		c-2.8,0-5.4,2.3-5.4,5.1v19.4c0,2.8,2.6,5.5,5.4,5.5h34.7c2.8,0,4.9-2.7,4.9-5.5V55.1C68,52.3,65.9,50,63.1,50z"/>
	<circle fill="#E5302C" cx="57" cy="9.2" r="9.2"/>
</g>
</svg>
