<?xml version="1.0" encoding="utf-8"?>
<!-- Generator: Adobe Illustrator 17.1.0, SVG Export Plug-In . SVG Version: 6.00 Build 0)  -->
<!DOCTYPE svg PUBLIC "-//W3C//DTD SVG 1.1//EN" "http://www.w3.org/Graphics/SVG/1.1/DTD/svg11.dtd">
<svg version="1.1" id="Layer_1" xmlns="http://www.w3.org/2000/svg" xmlns:xlink="http://www.w3.org/1999/xlink" x="0px" y="0px"
	 viewBox="0 0 100 100" enable-background="new 0 0 100 100" xml:space="preserve">
<g>
	<polygon fill="#E5302C" points="10.3,9.8 9.2,12.3 11.5,12.3 10.3,9.8 	"/>
	<path fill="#E5302C" d="M10.3,0C4.6,0,0,4.7,0,10.4c0,7,9.3,19,9.7,19.5c0.2,0.2,0.4,0.3,0.6,0.3h0c0.3,0,0.5-0.1,0.6-0.3
		c0.4-0.5,9.6-12.5,9.6-19.5C20.7,4.7,16,0,10.3,0z M15.2,16h-1.7c-0.3,0-0.4-0.1-0.5-0.4l-0.5-1.2H8.3l-0.5,1.2
		C7.6,15.8,7.5,16,7.2,16H5.5c-0.2,0-0.3-0.2-0.3-0.4L10,5.3c0-0.1,0.2-0.2,0.3-0.2h0.2c0.1,0,0.2,0.1,0.3,0.2l4.8,10.3
		C15.5,15.8,15.4,16,15.2,16z"/>
</g>
<g>
	<path fill="#E5302C" d="M82.3,34c-9.8,0-17.7,8-17.7,17.8c0,12.1,16,32.6,16.7,33.4c0.3,0.3,0.7,0.5,1.1,0.5c0,0,0,0,0,0
		c0.4,0,0.8-0.2,1.1-0.5c0.7-0.9,16.5-21.4,16.5-33.4C100,41.9,92.1,34,82.3,34z M82.9,61h-6.5c-0.3,0-0.5-0.2-0.5-0.5V43.2
		c0-0.3,0.2-0.5,0.5-0.5h6.1c3.1,0,5.6,2.1,5.6,4.9c0,2-1.8,3.5-3,4.1c1.4,0.6,3.5,1.9,3.5,4.3C88.6,58.9,86,61,82.9,61z"/>
	<path fill="#E5302C" d="M82.1,53.5H80v3.7h2.4c1,0,1.9-0.8,1.9-1.9C84.3,54.3,83.2,53.5,82.1,53.5z"/>
	<path fill="#E5302C" d="M83.9,48.2c0-1-0.8-1.8-1.8-1.8h-2v3.7h2C83.1,50.1,83.9,49.3,83.9,48.2z"/>
</g>
<path fill="#E5302C" stroke="#231F20" stroke-width="9" stroke-linecap="round" stroke-miterlimit="10" d="M79.2,33.3"/>
<path fill="#E5302C" d="M83.2,90.4L25.3,59.3l13.4-7c1.3-0.8,2.1-2.2,2-3.7c-0.1-1.5-1-2.8-2.4-3.5c0,0-23.9-10.6-25.7-11.2
	c-1.2-0.5-2.9-0.4-3.4-0.3c-1.8,0.4-3,1.4-3,2.6c0,1.7,3.2,2.8,3.6,3l22.8,9.8l-16.8,6.9c-1.3,0.7-2,2.1-2,3.6
	c0,1.5,0.9,2.8,2.2,3.5l58.5,34.5c2,0.8,4.1,2.5,7.6,2.5c0.3,0,0.6,0,0.9,0c0,0,0.1,0,0.1,0c0.4,0,0.8-0.1,1.1-0.2
	c2.9-0.5,5-2.2,5-4.1C89.3,93.4,86.7,92.1,83.2,90.4z M10.5,37.4c-1.2,0-2.1-0.6-2.1-1.3c0-0.7,0.9-1.3,2.1-1.3
	c1.2,0,2.1,0.6,2.1,1.3C12.6,36.9,11.7,37.4,10.5,37.4z M82.5,97.7c-2,0-3.6-1-3.6-2.2c0-1.2,1.6-2.2,3.6-2.2c2,0,3.6,1,3.6,2.2
	C86.1,96.8,84.5,97.7,82.5,97.7z"/>
</svg>
